# xmcd CD database file
#
# Track frame offsets:
#	150
#	11937
#	26762
#	43495
#	62680
#	81877
#	95260
#	108395
#	122127
#	138765
#	154397
#	176262
#	199177
#	217645
#	238687
#	257042
#	276487
#	290592
#	309520
#
# Disc length: 4388 seconds
#
# Revision: 5
# Processed by: cddbd v1.5.2PL0 Copyright (c) Steve Scherf et al.
# Submitted via: CDex 1.51
#
DISCID=16112213
DTITLE=The Atlantic Story [CD2]
DYEAR=1993
DGENRE=Soul
TTITLE0=Buffalo Springfield - For what it's worth
TTITLE1=Velvet Underground - Sweet jane
TTITLE2=Led Zeppelin - Rock and roll
TTITLE3=Bad Company - can't get enough
TTITLE4=The Detroit Spinners - Could it be I'm falling in love
TTITLE5=Dr John - Such a night
TTITLE6=Manhattan Transfer - Chanson D'amour
TTITLE7=The Blues Brothers - Soul man
TTITLE8=Chic - good times
TTITLE9=Sister Sledge - We are family
TTITLE10=Laura Brannigan - Gloria
TTITLE11=Foreigner - I want to know what love is
TTITLE12=Levert - Casanova
TTITLE13=Bette Midler - From a distance
TTITLE14=Alannah Myles - Black velvet
TTITLE15=Marc Cohn - Walking in Memphis
TTITLE16=Lemonheads - It's a shame about ray
TTITLE17=Tori Amos - Silent all these years
TTITLE18=En Vogue - Hold on
EXTD=YEAR: 1993
EXTT0=
EXTT1=
EXTT2=
EXTT3=
EXTT4=
EXTT5=
EXTT6=
EXTT7=
EXTT8=
EXTT9=
EXTT10=
EXTT11=
EXTT12=
EXTT13=
EXTT14=
EXTT15=
EXTT16=
EXTT17=
EXTT18=
PLAYORDER=
